<?xml version="1.0" standalone="no"?>
<!DOCTYPE svg PUBLIC "-//W3C//DTD SVG 20010904//EN"
 "http://www.w3.org/TR/2001/REC-SVG-20010904/DTD/svg10.dtd">
<svg version="1.0" xmlns="http://www.w3.org/2000/svg"
 width="1784.000000pt" height="1784.000000pt" viewBox="0 0 1784.000000 1784.000000"
 preserveAspectRatio="xMidYMid meet">
<metadata>
Created by potrace 1.14, written by Peter Selinger 2001-2017
</metadata>
<g transform="translate(0.000000,1784.000000) scale(0.100000,-0.100000)"
fill="#000000" stroke="none">
<path d="M3935 14913 c-16 -2 -63 -13 -102 -24 -279 -77 -451 -241 -665 -634
-368 -676 -628 -1731 -768 -3115 -60 -602 -93 -1162 -94 -1620 -1 -398 4 -445
80 -661 86 -248 200 -427 393 -619 226 -224 337 -288 811 -463 l305 -113 3
140 c1 77 1 145 -2 151 -2 6 -135 108 -296 226 -361 264 -403 299 -507 424
-108 127 -152 194 -218 330 -146 302 -174 513 -141 1040 93 1469 286 2697 539
3440 175 511 396 876 589 973 139 70 310 88 478 52 695 -148 1223 -652 1525
-1455 142 -378 244 -861 271 -1288 5 -80 10 -107 19 -103 43 16 299 96 309 96
7 0 11 12 9 33 -2 17 -10 111 -18 207 -23 255 -69 530 -129 766 -111 442 -299
864 -524 1177 -341 475 -829 821 -1386 983 -196 57 -349 75 -481 57z"/>
<path d="M13783 14906 c-255 -49 -583 -179 -832 -329 -329 -198 -668 -541
-867 -878 -149 -251 -246 -465 -332 -730 -101 -308 -175 -682 -207 -1039 -8
-96 -16 -190 -18 -207 -2 -24 1 -33 13 -33 8 0 85 -24 171 -53 l156 -52 7 127
c22 435 160 1042 321 1408 288 655 702 1072 1251 1259 181 62 308 85 424 77
215 -13 335 -74 462 -234 443 -558 749 -1827 902 -3747 75 -930 73 -1049 -21
-1340 -75 -232 -194 -427 -373 -606 -93 -93 -175 -159 -427 -344 l-313 -229 0
-147 0 -147 298 109 c468 171 596 244 823 469 193 192 307 371 393 619 76 216
81 263 80 661 -1 458 -34 1018 -94 1620 -140 1384 -400 2439 -768 3115 -214
393 -380 552 -664 635 -94 27 -283 35 -385 16z"/>
<path d="M4054 14295 c-145 -31 -213 -85 -329 -261 -374 -568 -646 -1751 -795
-3459 -30 -355 -60 -827 -60 -965 0 -379 140 -714 409 -980 97 -96 157 -143
366 -287 l250 -172 7 227 c13 422 74 760 203 1117 253 698 724 1299 1344 1715
112 74 358 213 465 261 l76 34 0 66 c0 146 -50 535 -96 749 -240 1117 -772
1774 -1577 1950 -104 23 -176 24 -263 5z"/>
<path d="M13685 14291 c-339 -81 -597 -219 -839 -451 -398 -382 -670 -1010
-791 -1829 -24 -159 -46 -485 -34 -490 6 -2 60 -27 120 -57 237 -116 447 -250
664 -422 149 -118 412 -381 529 -527 308 -387 530 -825 651 -1290 75 -286 103
-496 112 -827 3 -126 8 -228 10 -228 2 0 118 79 257 175 381 264 493 380 626
650 77 155 111 262 134 418 20 134 20 177 -4 551 -130 2007 -406 3376 -813
4031 -64 104 -150 207 -202 242 -97 66 -273 89 -420 54z"/>
<path d="M7214 11619 c-770 -38 -1475 -331 -2051 -853 -535 -485 -893 -1129
-1022 -1841 -47 -262 -46 -190 -46 -2390 0 -1943 1 -2085 17 -2155 63 -268
169 -468 343 -643 117 -117 314 -240 467 -291 177 -58 440 -77 608 -42 47 10
771 193 1609 408 1545 394 1611 411 1714 423 l57 6 0 334 c0 429 -12 492 -109
592 -85 88 -140 104 -396 112 -203 6 -212 7 -267 34 -74 36 -150 119 -179 195
-40 106 -25 254 37 353 32 51 106 122 159 153 96 57 81 56 846 56 667 0 709
-1 761 -19 116 -40 207 -120 260 -229 29 -58 33 -79 36 -162 3 -78 0 -105 -18
-152 -28 -74 -93 -146 -172 -188 l-63 -34 -215 -7 c-132 -4 -228 -12 -250 -20
-105 -38 -194 -129 -230 -234 -10 -30 -14 -134 -17 -412 l-4 -372 48 -6 c26
-3 75 -10 108 -16 33 -6 753 -187 1600 -404 847 -216 1576 -400 1620 -408 223
-43 426 -24 660 59 245 88 493 304 626 546 121 221 186 555 145 747 -47 221
-195 387 -423 474 l-58 22 -1210 5 -1210 5 -80 27 c-197 67 -350 231 -398 424
-8 32 -18 130 -21 216 -8 220 -44 318 -158 428 -105 101 -190 129 -418 140
-246 12 -305 26 -465 108 -75 39 -108 65 -195 152 -88 87 -113 120 -152 196
-26 49 -60 130 -75 180 l-28 89 -3 1238 -3 1237 1136 0 1135 0 0 -814 0 -814
-72 -12 c-213 -36 -418 -146 -560 -298 -328 -355 -342 -890 -33 -1273 82 -101
183 -181 310 -244 138 -68 237 -95 385 -102 490 -24 924 327 1001 810 l12 77
763 0 764 0 0 -815 0 -815 75 0 75 0 0 890 0 890 -839 0 -840 0 -6 48 c-10 74
-53 221 -85 290 -45 97 -124 203 -215 290 -136 131 -302 216 -489 249 l-96 17
0 893 0 893 -585 0 -585 0 0 885 0 885 -75 0 -75 0 0 -885 0 -885 -550 0 -550
0 0 885 0 885 -812 -1 c-447 -1 -885 -6 -974 -10z m4266 -3713 c394 -72 681
-409 680 -799 0 -119 -32 -247 -91 -366 -47 -94 -64 -117 -153 -207 -84 -83
-117 -108 -193 -147 -131 -67 -220 -89 -368 -90 -136 0 -217 16 -329 64 -522
229 -654 890 -262 1308 60 63 147 127 231 168 149 75 320 99 485 69z m-4739
-390 c132 -28 226 -101 286 -224 37 -74 38 -79 38 -186 0 -104 -2 -115 -32
-179 -59 -125 -186 -218 -323 -237 -231 -33 -445 134 -475 371 -26 207 129
417 337 458 64 13 96 12 169 -3z"/>
<path d="M11243 7515 c-77 -21 -130 -51 -188 -106 -171 -162 -174 -432 -6
-600 65 -65 140 -103 234 -119 285 -50 542 225 476 509 -52 229 -293 376 -516
316z"/>
<path d="M8785 4034 c-122 -24 -2705 -688 -2705 -695 0 -13 133 -96 235 -147
181 -91 374 -147 598 -177 103 -13 372 -15 2080 -15 1299 0 1992 4 2052 10
239 28 417 79 620 175 115 55 277 156 260 161 -65 20 -2590 663 -2673 680 -91
19 -139 24 -255 23 -78 -1 -173 -8 -212 -15z"/>
</g>
</svg>
