<?xml version="1.0" standalone="no"?>
<!DOCTYPE svg PUBLIC "-//W3C//DTD SVG 20010904//EN"
 "http://www.w3.org/TR/2001/REC-SVG-20010904/DTD/svg10.dtd">
<svg version="1.0" xmlns="http://www.w3.org/2000/svg"
 width="700.000000pt" height="700.000000pt" viewBox="0 0 700.000000 700.000000"
 preserveAspectRatio="xMidYMid meet">
<metadata>
Created by potrace 1.11, written by Peter Selinger 2001-2013
</metadata>
<g transform="translate(0.000000,700.000000) scale(0.100000,-0.100000)"
fill="#000000" stroke="none">
<path d="M1565 5693 c-71 -26 -110 -57 -162 -127 -87 -118 -170 -314 -228
-542 -34 -130 -40 -156 -51 -223 -3 -18 -8 -43 -10 -55 -13 -64 -34 -198 -39
-246 -3 -30 -8 -68 -10 -85 -18 -132 -26 -234 -40 -485 -20 -363 -8 -444 88
-597 39 -63 159 -183 183 -183 7 0 14 -3 16 -7 4 -11 68 -40 173 -78 50 -18
98 -36 108 -40 15 -6 17 -1 17 48 l0 55 -127 95 c-143 106 -176 138 -225 217
-72 116 -93 215 -83 394 4 72 8 145 10 161 2 17 6 71 10 122 3 51 8 100 9 110
2 10 7 50 10 88 9 86 14 128 41 305 15 96 16 105 35 195 6 28 12 59 14 70 24
121 95 344 137 427 89 177 144 222 269 222 172 0 355 -106 492 -287 125 -164
223 -472 236 -743 l2 -31 63 23 c34 12 61 26 60 31 0 4 -4 40 -7 79 -23 279
-126 569 -263 745 -42 55 -162 168 -218 206 -181 122 -392 178 -510 136z"/>
<path d="M5230 5696 c-25 -7 -82 -28 -127 -45 -230 -90 -427 -290 -538 -547
-33 -78 -80 -228 -90 -288 -3 -17 -8 -42 -10 -56 -12 -57 -14 -71 -20 -146 -4
-43 -8 -83 -9 -87 0 -5 27 -19 62 -31 34 -13 62 -21 63 -17 0 3 2 20 3 36 8
89 18 174 26 205 5 19 11 49 14 65 6 33 51 188 64 220 90 218 226 382 380 460
157 79 290 93 370 40 72 -47 143 -168 204 -345 26 -78 71 -241 82 -300 3 -14
11 -61 20 -105 8 -44 18 -100 21 -125 3 -25 10 -67 15 -95 5 -27 12 -79 16
-115 3 -36 7 -72 9 -80 2 -9 6 -49 9 -91 3 -41 8 -83 10 -94 10 -50 20 -263
20 -395 0 -134 -2 -150 -27 -215 -53 -133 -104 -193 -279 -323 l-128 -94 0
-54 c0 -30 2 -54 5 -54 2 0 17 5 32 11 57 23 70 28 139 54 279 102 426 322
418 625 -3 121 -15 367 -19 390 -1 8 -6 60 -9 115 -4 55 -9 107 -11 115 -2 8
-6 44 -10 80 -3 36 -7 76 -10 90 -2 13 -7 44 -10 69 -6 50 -8 62 -31 191 -9
47 -18 96 -21 110 -2 14 -15 69 -29 123 -95 376 -229 626 -370 689 -60 26
-170 33 -234 14z"/>
<path d="M1665 5478 c-86 -17 -162 -130 -234 -345 -44 -129 -100 -369 -117
-498 -3 -22 -7 -51 -10 -65 -4 -25 -21 -152 -29 -220 -2 -19 -7 -62 -10 -95
-4 -33 -8 -76 -10 -95 -2 -19 -7 -78 -10 -130 -4 -52 -8 -106 -11 -120 -2 -14
-4 -74 -5 -135 -1 -168 38 -278 133 -382 36 -38 237 -188 243 -181 1 2 5 55 8
118 14 324 143 617 372 845 105 105 180 161 308 230 l92 51 -3 59 c-4 74 -36
261 -57 335 -8 30 -17 62 -19 70 -31 116 -146 313 -231 392 -118 110 -307 187
-410 166z"/>
<path d="M5267 5484 c-2 -2 -12 -5 -23 -7 -227 -42 -420 -223 -522 -492 -36
-96 -65 -201 -78 -285 -3 -19 -7 -41 -9 -48 -3 -7 -8 -55 -11 -107 l-7 -93 64
-32 c175 -88 372 -258 477 -412 111 -162 195 -371 217 -538 3 -25 8 -54 10
-65 2 -11 4 -60 4 -108 1 -102 -7 -101 116 -13 129 92 170 136 218 232 59 117
64 249 22 659 -2 22 -7 69 -10 105 -5 53 -26 215 -50 380 -11 79 -50 254 -79
361 -63 229 -154 406 -227 440 -33 16 -104 31 -112 23z"/>
<path d="M2788 4485 c-2 -2 -25 -6 -53 -9 -259 -30 -534 -170 -718 -365 -121
-129 -215 -281 -269 -438 -16 -49 -31 -97 -34 -108 -2 -11 -6 -31 -9 -45 -24
-114 -26 -176 -26 -935 0 -800 0 -810 59 -919 61 -113 186 -202 318 -225 96
-18 126 -13 474 78 397 103 854 219 887 224 18 3 36 7 40 10 14 9 8 270 -7
306 -21 51 -67 72 -163 75 -66 2 -91 7 -119 24 -75 46 -83 152 -18 221 46 47
71 51 356 51 253 0 268 -1 304 -21 45 -26 88 -99 84 -143 -9 -91 -59 -129
-175 -131 -95 -3 -132 -17 -161 -62 -19 -32 -21 -51 -23 -179 -2 -134 -1 -144
16 -144 18 0 314 -74 619 -155 74 -19 173 -44 220 -55 47 -11 108 -27 135 -35
219 -64 351 -83 435 -62 213 50 352 223 354 437 1 75 -2 90 -27 132 -15 26
-40 56 -56 68 -69 49 -85 50 -549 50 -308 0 -446 3 -475 12 -45 14 -107 68
-131 116 -10 20 -19 65 -21 113 -4 96 -25 142 -81 182 -35 24 -54 29 -140 36
-153 12 -246 69 -305 188 l-24 48 -3 475 -3 475 421 0 420 0 1 -30 c3 -113 0
-567 -4 -571 -2 -3 -15 -7 -27 -9 -164 -32 -276 -155 -297 -326 -11 -96 52
-244 129 -302 88 -68 204 -96 301 -73 151 36 246 135 281 296 l5 25 281 0 280
0 1 -30 c0 -16 1 -153 1 -302 l1 -273 28 0 29 0 0 330 0 330 -92 0 c-51 1
-191 1 -310 0 -140 0 -218 3 -219 10 -1 5 -2 13 -4 18 -1 4 -5 21 -10 37 -33
124 -137 223 -270 257 l-50 13 2 328 1 327 -217 0 -218 0 1 313 c1 171 0 320
-2 330 -3 10 -14 17 -28 17 -28 0 -25 39 -26 -377 l0 -283 -204 0 -204 0 0
330 0 330 -354 -1 c-195 -1 -356 -2 -358 -4z m1707 -1399 c61 -28 113 -80 146
-143 20 -40 24 -63 24 -133 0 -76 -3 -91 -30 -139 -58 -104 -159 -162 -276
-157 -232 9 -366 267 -242 461 79 124 245 172 378 111z m-1776 -145 c68 -49
85 -153 35 -218 -115 -151 -346 -10 -261 159 42 83 151 112 226 59z"/>
<path d="M4295 2947 c-73 -41 -103 -147 -60 -213 83 -127 278 -82 290 67 7 84
-71 169 -155 169 -19 0 -53 -10 -75 -23z"/>
<path d="M3185 1616 c-137 -35 -347 -89 -465 -119 -118 -30 -222 -57 -230 -60
-8 -3 -28 -8 -43 -11 -15 -4 -25 -10 -22 -15 9 -16 128 -73 195 -95 63 -20 84
-20 855 -22 888 -3 867 -4 1015 69 75 37 97 58 65 63 -12 2 -495 126 -605 155
-41 11 -82 22 -90 24 -8 2 -69 17 -135 35 -70 18 -156 33 -205 36 -79 4 -101
0 -335 -60z"/>
</g>
</svg>
