<?xml version="1.0" encoding="utf-8"?>
<!-- Generator: Adobe Illustrator 25.0.0, SVG Export Plug-In . SVG Version: 6.00 Build 0)  -->
<svg version="1.1" id="Layer_1" xmlns="http://www.w3.org/2000/svg" xmlns:xlink="http://www.w3.org/1999/xlink" x="0px" y="0px"
	 viewBox="0 0 500 500" style="enable-background:new 0 0 500 500;" xml:space="preserve">
<style type="text/css">
	.st0{fill:#231F20;}
</style>
<g>
	<path class="st0" d="M201.05,286.7c-4.87,0-8.82,3.95-8.82,8.82c0,4.87,3.95,8.82,8.82,8.82c4.87,0,8.82-3.95,8.82-8.82
		C209.87,290.65,205.92,286.7,201.05,286.7z"/>
	<path class="st0" d="M250,57.11C143.47,57.11,57.11,143.47,57.11,250S143.47,442.89,250,442.89S442.89,356.53,442.89,250
		S356.53,57.11,250,57.11z M287.87,383.5h-75.74c-9.48,0-17.15-2.7-23.27-7.17l54.79-14.04c4.15-1.06,8.54-1.06,12.69,0l54.79,14.04
		C305.02,380.81,297.35,383.5,287.87,383.5z M355,331.91h-3.2v-34.62H319c-0.9,10.27-9.54,18.36-20.05,18.36
		c-11.1,0-20.14-9.03-20.14-20.14c0-10.57,8.2-19.25,18.57-20.06v-34.88H250v49.43c0,9.91,7.96,17.99,17.87,18.14l3,0.05
		c5.81,0.09,10.44,4.9,10.31,10.71v2.44c0,6.98,5.66,12.64,12.64,12.64h45.53c7.23,0,13.1,5.86,13.1,13.1
		c0,8.13-3.61,15.94-10.08,20.86c-6.26,4.77-14.19,6.38-21.83,4.42l-63.23-16.2c-1.76-0.45-1.03-0.34-3.04-0.85l0.11-14.43
		c0-3.96,0.9-7.16,4.85-7.16h5.4c4.13,0,7.6-3.37,7.62-7.5c0-0.13,0-0.26,0-0.39c-0.11-4.84-4.29-8.8-9.14-8.8h-26.22
		c-4.84,0-9.03,3.96-9.14,8.8c0,0.13,0,0.26,0,0.39c0.01,4.13,3.49,7.5,7.62,7.5h5.4c3.96,0,4.85,3.21,4.85,7.16l0.11,14.43
		c-2.53,0.71-1.29,0.4-3.04,0.85l-63.23,16.2c-7.63,1.96-15.58,0.34-21.83-4.43c-6.46-4.92-10.07-12.73-10.07-20.86V285.9
		l-15.08-6.08c-13.71-5.01-22.69-18.21-22.32-32.8c0.8-31.4,4.89-84.39,22.71-107.66c4.13-5.4,11.09-7.89,17.74-6.47
		c15.39,3.31,43.64,16.29,46.77,66.89c0.16,1.45,0.22,2.78,0.22,4.03c5.87-1.64,12.05-2.53,18.44-2.53H250v36.1h22.49V201h3.2v36.38
		h24.89v38.09c9.87,0.8,17.73,8.73,18.43,18.62H355V331.91z M367.53,279.82l-11.15,4.07v-6.1v-8.04c0-29.67-21.06-56.48-46.65-67.66
		c-2.31-0.88-4.68-1.67-7.1-2.31c3.13-50.6,31.38-63.58,46.77-66.89c6.65-1.43,13.6,1.07,17.74,6.47
		c17.82,23.28,21.91,76.26,22.71,107.66C390.23,261.61,381.25,274.81,367.53,279.82z"/>
	<path class="st0" d="M298.95,278.53c-9.37,0-16.99,7.62-16.99,16.99c0,9.37,7.62,16.99,16.99,16.99s16.99-7.62,16.99-16.99
		C315.94,286.15,308.32,278.53,298.95,278.53z M298.95,304.34c-4.87,0-8.82-3.95-8.82-8.82c0-4.87,3.95-8.82,8.82-8.82
		c4.87,0,8.82,3.95,8.82,8.82C307.77,300.39,303.82,304.34,298.95,304.34z"/>
</g>
</svg>
